<svg xmlns="http://www.w3.org/2000/svg" width="180.359" height="179.247" viewBox="0 0 180.359 179.247">
  <g id="Group_1660" data-name="Group 1660" transform="translate(-1265.063 -206.743)">
    <path id="Path_1" data-name="Path 1" d="M194.77,398.05A90.193,90.193,0,1,0,335.793,475.5,85.121,85.121,0,1,1,194.77,398.05Z" transform="translate(1109.629 -176.753)" fill="#fff" fill-rule="evenodd"/>
    <path id="Path_2" data-name="Path 2" d="M307.755,514.066a76.11,76.11,0,1,0-119-65.357,71.829,71.829,0,1,1,119,65.357Z" transform="translate(1097.435 -168.35)" fill="#29abe2" fill-rule="evenodd"/>
    <path id="Path_3" data-name="Path 3" d="M312.651,554.378h0c-.875-2.39-4.59-3.7-8.711-3.265-1.109.216-2.409.425-3.5.64-5.211,1.75-31.788,10.676-32,10.892l-.659.228.444.425c3.056,2.39,4.571,5.021,3.7,7.2-.856,3.481-5.23,5.44-12.191,5.871-6.53.666-14.372,0-23.743-1.731a17.719,17.719,0,0,1,3.265.216c6.746,0,13.066,0,18.081-.45,7.62-.64,11.317-2.39,11.76-5.23.216-1.946-.875-3.481-3.5-4.78-2.821-1.515-8.92-2.181-14.582-3.265-4.14-.659-7.627-1.09-10.461-1.731-9.142-2.415-18.512-4.806-29.62-3.931a44.5,44.5,0,0,0-5.224.64c-8.267,1.534-16.553,3.5-25.264,5.89l-1.09.216,12.857,18.3a62.324,62.324,0,0,1,6.955-1.09,36.734,36.734,0,0,1,8.5.216c3.481.659,12.4,2.39,20.9,4.14,8.73,1.965,17.206,3.481,20.262,3.912a44.159,44.159,0,0,0,5.446.235c4.355-.45,8.711-2.84,12.851-5.015,1.3-.875,2.606-1.306,3.931-2.181l37.88-20.471c4.355-2.606,4.355-4.787,3.715-5.871Z" transform="translate(1100.876 -232.747)" fill="#fff" fill-rule="evenodd"/>
    <path id="Path_4" data-name="Path 4" d="M260.2,449.7h1.344c9,1.084,7.937,14.715-1.122,14.36C252.019,463.73,251.392,450.271,260.2,449.7Z" transform="translate(1073.606 -195.658)" fill="#48b19a" fill-rule="evenodd"/>
    <path id="Path_5" data-name="Path 5" d="M273.112,458.545c.19-.044.209.089.222.222-8.052,16.388,6.441,39.028,0,58.333-4.343-19-13.96-32.967-26.475-43.973-1.667-1.471-3.924-2.415-4.939-4.489,8.914-1.8,15.716,1.965,21.086,5.161C264.166,466.5,267.66,461.544,273.112,458.545Z" transform="translate(1077.974 -198.892)" fill="#29abe2" fill-rule="evenodd"/>
    <path id="Path_6" data-name="Path 6" d="M215.839,473.685a8.024,8.024,0,0,1,9.421,6.283c1.781,11.976-17.2,12.4-15.926.45C209.721,476.792,211.687,474.408,215.839,473.685Z" transform="translate(1089.923 -204.389)" fill="#48b19a" fill-rule="evenodd"/>
    <path id="Path_7" data-name="Path 7" d="M225.371,478.72c15.552,10.023,24.966,26.183,31.186,45.545-.913.254-1.319-.869-1.794-1.344-11.279-11.279-29.214-24.82-53.172-18.4,3.62-7.278,11.133-11.678,22.659-10.321C227.33,491.114,227.742,482.936,225.371,478.72Z" transform="translate(1092.735 -206.28)" fill="#29abe2" fill-rule="evenodd"/>
    <path id="Path_8" data-name="Path 8" d="M293.95,505.684c2.137-25.505,17.878-37.4,35.085-47.847-4.216-9.313-8.857-18.2-13.339-27.255-7.7,2.162-13.726,5.991-17.98,11.6,2.726-8.584,11.183-13.948,20.877-16.528,5.858,11.83,11.932,23.438,17.98,35.085-20.826,7.4-36.372,20.072-42.046,42.623,10-19.286,29.208-29.36,49.584-38.273-4.482-8.952-8.984-17.885-13.339-26.97-.8-.71-2.276,1.109-3.189.292-.184-1.167-1.141-1.566-1.16-2.9a36.674,36.674,0,0,1,6.669-2.32c6.34,10.962,12.077,22.525,17.688,34.216-23.5,7.43-42.952,18.905-55.676,37.113,3.988-2.447,7.4-5.795,11.31-8.7,11.608-8.629,26.1-14.835,43.5-17.98-.621-2.568-2.149-4.229-2.9-6.669a25.2,25.2,0,0,1,5.218-1.737c1.953,4.425,4.647,8.115,6.378,12.756C330.258,483.228,312.063,494.418,293.95,505.684Z" transform="translate(1058.93 -186.855)" fill="#1a8db5" fill-rule="evenodd"/>
    <path id="Path_9" data-name="Path 9" d="M221.4,536.877c3.214-1.059,5.541-5.839,3.366-8.977a70.894,70.894,0,0,1,39.713,17.054C254.221,539.2,238.784,535.5,221.4,536.877Z" transform="translate(1085.484 -224.28)" fill="#29abe2" fill-rule="evenodd"/>
    <path id="Path_10" data-name="Path 10" d="M348.08,519.87c.311,1.281-1.186,3.36-.869,5.509.444,3.031,3.424,4.577,5.509,5.8-21.961-.881-42.071,2.58-55.676,11.019-.349.406-.114.025,0-.292C310.32,530.832,326.169,522.323,348.08,519.87Z" transform="translate(1057.865 -221.341)" fill="#1a8db5" fill-rule="evenodd"/>
  </g>
</svg>
