<?xml version="1.0" encoding="utf-8"?>
<!-- Generator: Adobe Illustrator 24.3.0, SVG Export Plug-In . SVG Version: 6.00 Build 0)  -->
<svg version="1.1" id="Layer_1" xmlns="http://www.w3.org/2000/svg" xmlns:xlink="http://www.w3.org/1999/xlink" x="0px" y="0px"
	 viewBox="0 0 946 284" style="enable-background:new 0 0 946 284;" xml:space="preserve">
<style type="text/css">
	.st0{fill:#F15A24;}
</style>
<path class="st0" d="M419.6,72.8H139.2l0,0c0-19.7,15.9-35.6,35.6-35.6h244.8c9.8,0,17.8,8,17.8,17.8l0,0
	C437.3,64.9,429.4,72.8,419.6,72.8z"/>
<path class="st0" d="M365.8,188.3H103.2c-9.8,0-17.8-8-17.8-17.8l0,0c0-9.8,8-17.8,17.8-17.8h262.6c9.8,0,17.8,8,17.8,17.8l0,0
	C383.6,180.4,375.7,188.3,365.8,188.3z"/>
<path class="st0" d="M287.6,246.8H42.8c-9.8,0-17.8-8-17.8-17.8l0,0c0-9.8,8-17.8,17.8-17.8h280.4l0,0
	C323.2,230.8,307.2,246.8,287.6,246.8z"/>
<path class="st0" d="M306.1,130.6H157c-9.8,0-17.8-8-17.8-17.8l0,0c0-9.8,8-17.8,17.8-17.8h149.1c9.8,0,17.8,8,17.8,17.8l0,0
	C323.9,122.6,315.9,130.6,306.1,130.6z"/>
<g>
	<g>
		<path class="st0" d="M543.3,112.1c0,4.3-1,7.9-3,10.9c-2,2.9-4.5,5.3-7.6,7.2c-3.1,1.8-6.5,3.1-10.3,4c-3.8,0.8-7.5,1.2-11.1,1.2
			c-3.4,0-7-0.4-10.7-1.1c-3.7-0.7-7.1-1.9-10.2-3.5s-5.7-3.8-7.7-6.5c-2.1-2.7-3.2-6.1-3.4-10.1c0-0.6,0.2-1.2,0.7-1.6
			s1-0.6,1.6-0.6h14c0.4,0,0.8,0,1.1,0.1c0.3,0.1,0.6,0.2,0.9,0.3c0.5,0.3,1.1,0.8,1.8,1.5c1.1,2.2,2.8,3.8,5,4.6
			c2.2,0.8,4.5,1.2,6.9,1.2c1.1,0,2.3-0.1,3.6-0.2c1.4-0.1,2.6-0.4,3.8-0.9s2.2-1.1,3-2s1.3-2,1.3-3.4c0-1.9-0.7-3.3-2.1-4.1
			c-1.4-0.8-2.9-1.5-4.4-2c-1.2-0.4-2.6-0.8-4.3-1.2c-1.7-0.4-3.6-0.8-5.7-1.2c-3.2-0.6-6.4-1.5-9.4-2.5s-5.7-2.4-8.1-4.1
			s-4.3-3.8-5.7-6.4c-1.4-2.6-2.2-5.7-2.2-9.4c0-4.6,1.3-8.6,3.8-12c2.6-3.3,5.9-5.9,10.1-7.6c4.5-1.8,9.7-2.7,15.5-2.7
			c2.3,0,4.7,0.2,7.2,0.6c2.5,0.4,4.9,1,7.3,1.9c2.4,0.9,4.5,2,6.6,3.5c2,1.4,3.8,3.2,5.3,5.2c2.4,3.1,3.7,6.2,3.9,9.4
			c0,0.6-0.2,1.1-0.7,1.6s-1,0.7-1.5,0.7h-14.7c-1.5,0-2.6-0.6-3.5-1.9c-0.4-1.5-1.5-2.7-3.3-3.8c-1.9-1-4.1-1.5-6.5-1.5
			c-1.1,0-2.1,0.1-3.2,0.2s-2.1,0.5-3,0.9c-0.9,0.5-1.7,1.1-2.2,1.9c-0.6,0.8-0.8,1.8-0.8,3.1c0,2,1.1,3.5,3.2,4.7
			c2.1,1.1,6,2.3,11.8,3.5c3.3,0.6,6.6,1.4,9.9,2.3c3.3,0.9,6.2,2.1,8.7,3.7s4.6,3.7,6.2,6.3C542.5,104.8,543.3,108.1,543.3,112.1z"
			/>
		<path class="st0" d="M586.3,95.9c1.3,0,2.5,0.2,3.6,0.7s2.1,1,3.1,1.6c0.9,0.6,1.7,1.3,2.3,1.9s1,1.1,1.3,1.5l22,29.1
			c0.3,0.3,0.4,0.7,0.4,1.3s-0.2,1.1-0.6,1.5c-0.4,0.5-1,0.7-1.7,0.7h-16.4c-0.8,0-1.6-0.2-2.4-0.5c-0.8-0.3-1.4-0.9-1.8-1.6
			c-3.3-4.3-6.3-8.1-9-11.6c-1.6-2-2.9-3.7-3.9-4.9c-1-1.2-1.9-2.4-2.7-3.5s-1.6-2-2.2-2.8c-0.6-0.8-1-1.3-1.1-1.5
			c-0.1-0.1-0.2-0.2-0.4-0.2c-0.4,0-0.6,0.2-0.6,0.5v23.4c0,0.7-0.2,1.3-0.7,1.8c-0.4,0.6-1.1,0.8-1.9,0.8h-14
			c-0.7,0-1.3-0.3-1.8-0.8s-0.8-1.1-0.8-1.8V69.8c0-2.4,0.8-4.5,2.5-6.4s3.9-2.8,6.6-2.8h7.5c0.8,0,1.5,0.2,1.9,0.7
			c0.5,0.5,0.7,1.2,0.7,2v21.2c0,0.4,0.2,0.6,0.6,0.6c0.2,0,0.4-0.1,0.4-0.3l17.5-22.1c0.8-1.4,2.2-2.1,4.1-2.1h16.1
			c0.6,0,1.1,0.2,1.5,0.6c0.4,0.5,0.6,1,0.6,1.6s-0.1,1-0.4,1.3c-3.6,4.6-6.8,8.8-9.7,12.5c-1.8,2.2-3.1,4-4.2,5.4
			c-1,1.3-1.9,2.6-2.8,3.7c-0.8,1.1-1.6,2.1-2.2,2.8c-0.6,0.8-0.9,1.2-1,1.3c-0.1,0.2-0.5,0.6-1.1,1.3c-0.6,0.6-1.3,1.3-2.2,2
			s-2,1.3-3.2,1.9C589,95.6,587.7,95.9,586.3,95.9z"/>
		<path class="st0" d="M630.3,131.8V70.2c0-2.7,0.9-4.9,2.7-6.6c1.8-1.7,4-2.6,6.4-2.6h8.4c0.8,0,1.5,0.2,1.9,0.7
			c0.5,0.5,0.7,1.1,0.7,1.9v68.2c0,0.8-0.2,1.4-0.7,1.9c-0.4,0.5-1.1,0.7-1.9,0.7h-15c-0.8,0-1.4-0.2-1.9-0.7
			C630.6,133.2,630.3,132.6,630.3,131.8z"/>
		<path class="st0" d="M668.3,131.5V69.7c0-1.3,0.3-2.6,0.8-3.7s1.2-2.1,2.1-2.8c0.8-0.8,1.8-1.4,2.9-1.8c1.1-0.5,2.2-0.7,3.4-0.7
			h8.1c0.8,0,1.5,0.2,1.9,0.7c0.5,0.5,0.7,1.1,0.7,1.9v51.1c0,0.6,0.3,1.2,0.8,2.1c0.6,0.8,1.3,1.2,2.3,1.2h28.3
			c0.7,0,1.3,0.2,1.9,0.7c0.6,0.5,0.8,1.1,0.8,1.9v11.2c0,0.8-0.3,1.4-0.8,1.9c-0.6,0.5-1.2,0.7-1.9,0.7H671c-0.7,0-1.3-0.3-1.8-0.8
			C668.6,132.8,668.3,132.2,668.3,131.5z"/>
		<path class="st0" d="M734.7,131.5V69.7c0-1.3,0.3-2.6,0.8-3.7s1.2-2.1,2.1-2.8c0.8-0.8,1.8-1.4,2.9-1.8c1.1-0.5,2.2-0.7,3.4-0.7
			h8.1c0.8,0,1.5,0.2,1.9,0.7c0.5,0.5,0.7,1.1,0.7,1.9v51.1c0,0.6,0.3,1.2,0.8,2.1c0.6,0.8,1.3,1.2,2.3,1.2H786
			c0.7,0,1.3,0.2,1.9,0.7c0.6,0.5,0.8,1.1,0.8,1.9v11.2c0,0.8-0.3,1.4-0.8,1.9c-0.6,0.5-1.2,0.7-1.9,0.7h-48.8
			c-0.7,0-1.3-0.3-1.8-0.8C735,132.8,734.7,132.2,734.7,131.5z"/>
		<path class="st0" d="M860.6,112.1c0,4.3-1,7.9-2.9,10.9c-2,3-4.5,5.4-7.6,7.2s-6.5,3.1-10.3,3.9c-3.8,0.8-7.5,1.2-11.1,1.2
			c-2.5,0-5-0.2-7.7-0.5s-5.3-0.9-7.7-1.7c-2.5-0.8-4.8-1.9-7.1-3.3c-2.2-1.4-4.1-3.1-5.6-5.2c-2.5-3.2-3.8-6.7-3.9-10.4
			c0-0.6,0.2-1.2,0.6-1.6c0.6-0.4,1.1-0.6,1.7-0.6h13.9c0.9,0,1.6,0.1,2.2,0.4c0.5,0.3,1.1,0.8,1.6,1.5c1.3,2.2,3,3.8,5.1,4.6
			c2.1,0.8,4.4,1.2,6.9,1.2c1.1,0,2.2-0.1,3.6-0.3c1.3-0.2,2.6-0.5,3.8-0.9c1.2-0.5,2.2-1.1,3.1-2c0.8-0.8,1.3-2,1.3-3.4
			c0-1.8-0.7-3.2-2.2-4.1s-2.9-1.6-4.4-2.1c-1.1-0.3-2.5-0.7-4.2-1.2c-1.7-0.4-3.6-0.9-5.7-1.4c-3.2-0.6-6.4-1.4-9.4-2.4
			s-5.7-2.3-8.1-4c-2.4-1.7-4.3-3.8-5.7-6.4s-2.2-5.7-2.2-9.5c0-4,0.9-7.4,2.7-10.3c1.8-2.8,4.1-5.2,6.9-7c2.8-1.8,6-3.1,9.4-3.9
			c3.5-0.8,6.9-1.2,10.4-1.2c2.4,0,4.8,0.2,7.3,0.6c2.5,0.4,4.9,1.1,7.2,2s4.5,2.1,6.5,3.5s3.8,3.1,5.3,5.1c2.4,3.2,3.7,6.3,3.8,9.4
			c0,0.6-0.2,1.1-0.6,1.7c-0.4,0.4-0.9,0.6-1.6,0.6h-14.6c-1.5,0-2.7-0.6-3.6-1.9c-0.3-1-0.8-1.8-1.5-2.5s-1.5-1.2-2.5-1.6
			c-0.9-0.4-1.9-0.7-2.9-0.8c-1-0.2-1.9-0.3-2.8-0.3c-1.1,0-2.1,0.1-3.2,0.2c-1.1,0.1-2.1,0.4-3,0.9s-1.6,1.1-2.2,1.9
			c-0.6,0.8-0.9,1.8-0.9,3.1c0,2,1.1,3.7,3.2,4.8c2.1,1.1,6,2.3,11.7,3.5c3.4,0.6,6.7,1.3,10,2.2c3.3,0.9,6.2,2.2,8.7,3.8
			c2.5,1.6,4.6,3.7,6.1,6.3C859.8,104.8,860.6,108.1,860.6,112.1z"/>
	</g>
	<g>
		<path class="st0" d="M419.5,222.6c-0.4-0.6-0.6-1.1-0.6-1.6s0-0.8,0.1-0.9l24.4-67.2c0.8-2,2.2-3.1,4.2-3.1h16.3
			c2,0,3.4,1,4.2,3.1l24.4,67.2c0.1,0.1,0.1,0.5,0.1,0.9c0,0.6-0.2,1.1-0.7,1.5c-0.5,0.5-1,0.7-1.5,0.7h-13.6
			c-1.8,0-2.9-0.8-3.6-2.3l-5.5-14.9c-2.5,1-5.1,1.8-7.7,2.4c-2.6,0.6-5.1,1.1-7.5,1.4c-2.4,0.3-4.7,0.5-6.8,0.6
			c-2.1,0.1-3.9,0.2-5.5,0.2c-1,0-1.8,0-2.5,0s-1.2,0-1.5-0.1c1.3,0.2,2.3,0.9,3.1,2.1c0.8,1.2,0.9,2.6,0.3,4.2l-1.5,4
			c-0.6,1.5-1.8,2.3-3.6,2.3H421C420.6,223.2,420,223,419.5,222.6z M446.2,195.6c2-0.1,4-0.4,6.1-0.7c1.8-0.3,3.7-0.7,5.7-1.2
			s3.9-1.3,5.7-2.3l-8.1-23.2L446.2,195.6z"/>
		<path class="st0" d="M501.9,195.8c-0.1-1-0.1-2.2-0.1-3.7s0-3.3,0-5.4c0-2.2,0-4.1,0-5.7c0-1.5,0-2.8,0.1-3.8
			c0.1-4.8,1.1-9.1,2.8-12.6c1.7-3.6,4-6.5,6.9-8.8c2.9-2.3,6.3-4.1,10.2-5.2c3.9-1.2,8.2-1.7,12.7-1.7c4,0,8,0.5,11.9,1.5
			s7.4,2.5,10.5,4.6s5.6,4.8,7.5,8s2.9,7,3,11.4c0,0.6-0.2,1.2-0.6,1.6c-0.5,0.4-1.1,0.6-1.7,0.6h-14.9c-1.1,0-1.8-0.2-2.3-0.6
			c-0.5-0.4-0.8-1.1-1.1-2.1c-0.9-3.3-2.3-5.7-4.3-7.1c-1.9-1.4-4.6-2.1-8.1-2.1c-7.9,0-12,4.4-12.3,13.2c-0.1,1-0.1,2.2-0.1,3.6
			c0,1.4,0,3.1,0,5.2c0,2,0,3.7,0,5.2s0,2.7,0.1,3.7c0.4,8.8,4.5,13.3,12.3,13.3c3.1,0,5.7-0.7,7.9-2.1c2-1.5,3.5-3.9,4.4-7.2
			c0.4-1.1,0.7-1.8,1.2-2.1c0.6-0.4,1.3-0.6,2.2-0.6H565c0.6,0,1.2,0.2,1.7,0.6c0.4,0.4,0.6,0.9,0.6,1.6c-0.1,4.5-1.1,8.4-3.1,11.6
			c-2,3.2-4.5,5.9-7.6,8s-6.6,3.6-10.5,4.5s-7.8,1.4-11.7,1.4c-4.7,0-9-0.6-12.9-1.7c-3.9-1.1-7.3-2.8-10.2-5.2
			c-2.9-2.3-5.2-5.3-6.8-8.8C503,205,502.1,200.7,501.9,195.8z"/>
		<path class="st0" d="M575.7,222.6c-0.4-0.6-0.6-1.1-0.6-1.6s0-0.8,0.1-0.9l24.4-67.2c0.8-2,2.2-3.1,4.2-3.1h16.3
			c2,0,3.4,1,4.2,3.1l24.4,67.2c0.1,0.1,0.1,0.5,0.1,0.9c0,0.6-0.2,1.1-0.7,1.5c-0.5,0.5-1,0.7-1.5,0.7H633c-1.8,0-2.9-0.8-3.6-2.3
			L624,206c-2.5,1-5.1,1.8-7.7,2.4c-2.6,0.6-5.1,1.1-7.5,1.4c-2.4,0.3-4.7,0.5-6.8,0.6s-3.9,0.2-5.5,0.2c-1,0-1.8,0-2.5,0
			s-1.2,0-1.6-0.1c1.3,0.1,2.4,0.8,3.2,2.1c0.8,1.2,0.9,2.7,0.3,4.3l-1.5,4c-0.6,1.5-1.8,2.3-3.6,2.3h-13.6
			C576.8,223.2,576.2,223,575.7,222.6z M602.4,195.6c2-0.1,4-0.4,6.1-0.7c1.8-0.3,3.7-0.7,5.7-1.2s3.9-1.3,5.7-2.3l-8.1-23.2
			L602.4,195.6z"/>
		<path class="st0" d="M660.4,220.6V159c0-2.7,0.9-4.9,2.8-6.6c1.9-1.7,4-2.6,6.4-2.6h21.1c4.7,0,9,0.5,13,1.6s7.4,2.8,10.4,5.2
			c2.9,2.4,5.3,5.3,7,9c1.7,3.6,2.6,7.9,2.7,12.9c0.1,1,0.1,2.2,0.1,3.5c0,1.4,0,2.9,0,4.6c0,1.6,0,3.1,0,4.4c0,1.3,0,2.5-0.1,3.5
			c-0.6,19.2-11.5,28.8-32.6,28.8H663c-0.8,0-1.4-0.2-1.9-0.7C660.6,222,660.4,221.4,660.4,220.6z M690.6,207.5
			c4.6,0,7.9-1.1,9.9-3.3s3.1-5.5,3.2-10c0.1-1,0.1-2.1,0.2-3.4c0-1.3,0.1-2.8,0.1-4.4c0-1.6,0-3.1-0.1-4.4c0-1.3-0.1-2.4-0.2-3.4
			c-0.2-8.8-4.7-13.2-13.6-13.2h-15.8c1.6,0,3,0.6,4.1,1.7c1.1,1.2,1.7,2.4,1.7,3.7v33.3c0,0.9,0.3,1.7,0.9,2.3s1.4,0.9,2.4,0.9h7.2
			V207.5z"/>
		<path class="st0" d="M739.4,220.4v-61.6c0-2.7,0.9-4.9,2.7-6.6c1.8-1.7,4-2.6,6.4-2.6h43c0.7,0,1.3,0.3,1.9,0.8
			c0.6,0.6,0.8,1.2,0.8,1.9v10.4c0,0.8-0.3,1.4-0.8,1.8c-0.5,0.5-1.1,0.7-1.9,0.7h-39c1.7,0,3.1,0.6,4.2,1.8
			c1.1,1.2,1.6,2.5,1.6,3.9v4.4c0,0.8,0.3,1.5,0.8,2.2c0.6,0.7,1.4,1.1,2.4,1.1h22.9c1.8,0,2.7,0.9,2.7,2.7v9.5
			c0,1.8-0.9,2.7-2.7,2.7h-31.9c1.6,0,3,0.6,4.1,1.7c1.1,1.1,1.7,2.4,1.7,3.8v5c0,0.8,0.3,1.5,0.9,2.2c0.6,0.7,1.4,1.1,2.4,1.1h30.8
			c0.8,0,1.4,0.3,1.9,0.8s0.8,1.2,0.8,1.9v10.3c0,0.8-0.3,1.4-0.8,1.9c-0.6,0.5-1.2,0.7-1.9,0.7H742c-0.8,0-1.4-0.2-1.9-0.7
			C739.6,221.8,739.4,221.1,739.4,220.4z"/>
		<path class="st0" d="M880.5,149.8c0.7,0,1.3,0.3,1.9,0.8c0.6,0.6,0.8,1.2,0.8,1.9v68.1c0,0.8-0.3,1.4-0.8,1.9
			c-0.6,0.5-1.2,0.7-1.9,0.7h-13.3c-0.8,0-1.4-0.2-1.9-0.7s-0.7-1.1-0.7-1.9v-35.9c0-0.4-0.2-0.6-0.6-0.6c-0.1,0-0.3,0.1-0.4,0.3
			l-10.3,18.9c-0.8,1.6-2.1,2.4-3.7,2.4H844c-1.4,0-2.6-0.8-3.7-2.4l-10.2-18.9c-0.1-0.2-0.2-0.3-0.4-0.3c-0.4,0-0.6,0.2-0.6,0.6
			v35.9c0,0.8-0.2,1.5-0.7,1.9c-0.5,0.5-1.2,0.7-2,0.7h-13.2c-0.8,0-1.4-0.2-1.9-0.7s-0.8-1.1-0.8-1.9v-62c0-1.5,0.3-2.8,1-3.8
			c0.7-1.1,1.5-2,2.4-2.7s1.9-1.3,2.8-1.6c1-0.4,1.8-0.5,2.4-0.5h5.9c1.8,0,3.1,0.8,3.8,2.3l17.6,31.5c0.1,0.1,0.3,0.2,0.4,0.2
			c0.2,0,0.4-0.1,0.5-0.2l17.7-31.5c0.7-1.5,2-2.3,3.8-2.3h11.7V149.8z"/>
		<path class="st0" d="M900.8,220.6V159c0-2.7,0.9-4.9,2.7-6.6c1.8-1.7,4-2.6,6.4-2.6h8.4c0.8,0,1.5,0.2,1.9,0.7
			c0.5,0.5,0.7,1.1,0.7,1.9v68.2c0,0.8-0.2,1.4-0.7,1.9c-0.4,0.5-1.1,0.7-1.9,0.7h-15c-0.8,0-1.4-0.2-1.9-0.7
			C901,222,900.8,221.4,900.8,220.6z"/>
	</g>
</g>
</svg>
