<svg xmlns="http://www.w3.org/2000/svg" xmlns:xlink="http://www.w3.org/1999/xlink" width="102.811" height="99.384" viewBox="0 0 102.811 99.384">
  <defs>
    <linearGradient id="linear-gradient" x1="0.834" y1="0.5" x2="0" y2="0.5" gradientUnits="objectBoundingBox">
      <stop offset="0" stop-color="#48b19a"/>
      <stop offset="1" stop-color="#164327"/>
    </linearGradient>
  </defs>
  <g id="Group_165" data-name="Group 165" transform="translate(-3928 -1409)">
    <g id="online-course" transform="translate(3928 1409)">
      <path id="Path_132" data-name="Path 132" d="M101.1,65.114H1.714A1.714,1.714,0,0,1,0,63.4V6.856A6.864,6.864,0,0,1,6.856,0h89.1a6.864,6.864,0,0,1,6.856,6.856V63.4A1.714,1.714,0,0,1,101.1,65.114ZM3.427,61.687H99.384V6.856a3.431,3.431,0,0,0-3.429-3.429H6.856A3.431,3.431,0,0,0,3.427,6.856Z" transform="translate(0 0)" fill="url(#linear-gradient)"/>
      <path id="Path_133" data-name="Path 133" d="M95.955,53.135H6.856A6.864,6.864,0,0,1,0,46.279V37.714A1.714,1.714,0,0,1,1.714,36H101.1a1.714,1.714,0,0,1,1.714,1.714v8.566A6.864,6.864,0,0,1,95.955,53.135ZM3.427,39.427v6.852a3.431,3.431,0,0,0,3.429,3.429h89.1a3.431,3.431,0,0,0,3.429-3.429V39.427Z" transform="translate(0 25.687)" fill="url(#linear-gradient)"/>
      <path id="Path_134" data-name="Path 134" d="M37.995,43.427H27.714a1.714,1.714,0,0,1,0-3.427H37.995a1.714,1.714,0,0,1,0,3.427Z" transform="translate(18.551 28.541)" fill="url(#linear-gradient)"/>
      <path id="Path_135" data-name="Path 135" d="M91.389,62.26H5.714A1.714,1.714,0,0,1,4,60.546V5.714A1.714,1.714,0,0,1,5.714,4H91.389A1.714,1.714,0,0,1,93.1,5.714V60.546A1.714,1.714,0,0,1,91.389,62.26ZM7.427,58.833H89.676V7.427H7.427Z" transform="translate(2.854 2.854)" fill="url(#linear-gradient)"/>
      <path id="Path_136" data-name="Path 136" d="M63.692,62.281H19.141a5.141,5.141,0,1,1,0-10.281H63.692a5.141,5.141,0,1,1,0,10.281ZM19.141,55.427a1.714,1.714,0,0,0,0,3.427H63.692a1.714,1.714,0,0,0,0-3.427Z" transform="translate(9.989 37.103)" fill="url(#linear-gradient)"/>
      <path id="Path_137" data-name="Path 137" d="M57.411,61.135h-37.7a1.714,1.714,0,1,1,0-3.427c5.685,0,8.568-4.035,8.568-11.995A1.714,1.714,0,0,1,29.995,44H47.13a1.714,1.714,0,0,1,1.714,1.714c0,7.959,2.882,11.995,8.568,11.995a1.714,1.714,0,1,1,0,3.427ZM28.06,57.708H49.066c-2.111-2.337-3.353-5.817-3.6-10.281h-13.8C31.412,51.891,30.171,55.371,28.06,57.708Z" transform="translate(12.843 31.395)" fill="url(#linear-gradient)"/>
    </g>
    <path id="Path_139" data-name="Path 139" d="M8.321,2.439a.61.61,0,1,0,.61.61A.61.61,0,0,0,8.321,2.439ZM20.812,27.265a2.644,2.644,0,1,0,2.644,2.644A2.647,2.647,0,0,0,20.812,27.265Zm0,4.069a1.425,1.425,0,1,1,1.425-1.425A1.426,1.426,0,0,1,20.812,31.334ZM38.576,0H3.049A3.052,3.052,0,0,0,0,3.049V38.576a3.052,3.052,0,0,0,3.049,3.049H38.576a3.052,3.052,0,0,0,3.049-3.049V3.049A3.052,3.052,0,0,0,38.576,0ZM40.4,38.576A1.831,1.831,0,0,1,38.576,40.4H3.049a1.831,1.831,0,0,1-1.829-1.829V6.1H40.4Zm0-33.7H1.219V3.049A1.831,1.831,0,0,1,3.049,1.219H38.576A1.831,1.831,0,0,1,40.4,3.049ZM3.444,2.439a.61.61,0,1,0,.61.61A.61.61,0,0,0,3.444,2.439ZM22.629,21.718H12.9a.61.61,0,0,0,0,1.219H22.63a.61.61,0,1,0,0-1.219ZM5.883,2.439a.61.61,0,1,0,.61.61A.61.61,0,0,0,5.883,2.439ZM6.7,31.712H16c0,.082,0,.171-.006.255a1.914,1.914,0,0,0,.258,1.258,1.451,1.451,0,0,0,.643.479L15.2,36.633a.8.8,0,0,0,.661,1.2l1.106.042.591.938a.8.8,0,0,0,1.369-.027l1.883-3.262,1.883,3.261a.8.8,0,0,0,1.37.027l.59-.938,1.1-.042a.8.8,0,0,0,.664-1.2L24.732,33.7a1.451,1.451,0,0,0,.643-.479,1.914,1.914,0,0,0,.258-1.258c0-.084-.006-.173-.006-.255h9.3a1.424,1.424,0,0,0,1.423-1.423V8.993A1.424,1.424,0,0,0,34.929,7.57H6.7A1.424,1.424,0,0,0,5.273,8.993v21.3A1.424,1.424,0,0,0,6.7,31.712Zm11.525,5.86-.338-.536a.8.8,0,0,0-.645-.373l-.632-.024L18,34.23c.282.4.506.862,1.072,1.045a1.227,1.227,0,0,0,.445.058Zm6.8-.933-.633.024a.8.8,0,0,0-.645.373l-.337.536-1.293-2.239a1.262,1.262,0,0,0,.445-.059,1.926,1.926,0,0,0,.959-.879c.037-.055.075-.113.113-.167Zm-.065-6.294a1.972,1.972,0,0,0-.539,1.667,1.554,1.554,0,0,1-.025.494,1.538,1.538,0,0,1-.468.18A1.974,1.974,0,0,0,22.5,33.721c-.086.13-.246.371-.318.394a1.6,1.6,0,0,1-.468-.128,2.586,2.586,0,0,0-.977-.206,2.777,2.777,0,0,0-.824.206,1.608,1.608,0,0,1-.466.129c-.074-.024-.234-.265-.32-.395a2.525,2.525,0,0,0-.586-.681,2.549,2.549,0,0,0-.836-.352,1.546,1.546,0,0,1-.468-.179,1.547,1.547,0,0,1-.025-.495,1.971,1.971,0,0,0-.539-1.667,1.423,1.423,0,0,1-.28-.437,1.423,1.423,0,0,1,.28-.437A1.971,1.971,0,0,0,17.21,27.8a1.553,1.553,0,0,1,.025-.494,1.538,1.538,0,0,1,.468-.18,2.551,2.551,0,0,0,.836-.352,2.526,2.526,0,0,0,.586-.681c.086-.13.246-.371.318-.394.1-.034.327.077.468.128a2.609,2.609,0,0,0,.9.209,2.609,2.609,0,0,0,.9-.209,1.617,1.617,0,0,1,.466-.129c.074.024.234.265.32.395a1.974,1.974,0,0,0,1.422,1.033,1.545,1.545,0,0,1,.468.179,1.543,1.543,0,0,1,.025.495,2.581,2.581,0,0,0,.078.908,2.488,2.488,0,0,0,.462.759,1.423,1.423,0,0,1,.279.437,1.422,1.422,0,0,1-.279.437ZM6.492,8.993a.2.2,0,0,1,.2-.2H34.929a.2.2,0,0,1,.2.2v21.3a.2.2,0,0,1-.2.2H26.317a1.364,1.364,0,0,0,.136-.584,1.937,1.937,0,0,0-.543-1.194,1.756,1.756,0,0,1-.257-.378,1.806,1.806,0,0,1-.019-.486,1.555,1.555,0,0,0-1.381-1.893,1.79,1.79,0,0,1-.449-.164,1.78,1.78,0,0,1-.289-.371,1.927,1.927,0,0,0-.959-.879,1.9,1.9,0,0,0-1.263.144,1.787,1.787,0,0,1-.48.134,1.786,1.786,0,0,1-.48-.134,1.9,1.9,0,0,0-1.263-.144,1.926,1.926,0,0,0-.959.879,1.78,1.78,0,0,1-.289.371,1.791,1.791,0,0,1-.449.164,1.922,1.922,0,0,0-1.123.636,1.914,1.914,0,0,0-.258,1.258c0,.067.005.136.006.2H11.642a3.385,3.385,0,0,0-2.711-2.711V19.888a.61.61,0,1,0-1.219,0V25.9a.61.61,0,0,0,.61.61,2.158,2.158,0,0,1,2.156,2.156.61.61,0,0,0,.61.61h4.246a1.387,1.387,0,0,0-.162.636,1.364,1.364,0,0,0,.136.584H6.7a.2.2,0,0,1-.2-.2Zm1.829,8.66a.61.61,0,0,0,.61-.61v-3.1a3.385,3.385,0,0,0,2.711-2.711H29.982a3.385,3.385,0,0,0,2.711,2.711v11.4a3.385,3.385,0,0,0-2.711,2.711h-1.61a.61.61,0,0,0,0,1.219h2.164a.61.61,0,0,0,.61-.61A2.158,2.158,0,0,1,33.3,26.508a.61.61,0,0,0,.61-.61V13.385a.61.61,0,0,0-.61-.61,2.158,2.158,0,0,1-2.156-2.156.61.61,0,0,0-.61-.61H11.087a.61.61,0,0,0-.61.61,2.158,2.158,0,0,1-2.156,2.156.61.61,0,0,0-.61.61v3.658A.61.61,0,0,0,8.322,17.653Zm23.152,2.236a.61.61,0,0,0-.61-.61H10.76a.61.61,0,0,0,0,1.219h20.1a.61.61,0,0,0,.61-.61ZM10.151,17.45a.61.61,0,0,0,.61.61h20.1a.61.61,0,0,0,0-1.219H10.76A.61.61,0,0,0,10.151,17.45ZM27.507,15.62a.61.61,0,1,0,0-1.219H14.117a.61.61,0,0,0,0,1.219Z" transform="translate(3958.374 1425.562)" fill="url(#linear-gradient)"/>
  </g>
</svg>
