<svg xmlns="http://www.w3.org/2000/svg" width="19.2" height="24" viewBox="0 0 19.2 24">
  <g id="assessment" transform="translate(-63.997 -15.994)">
    <path id="Path_200" data-name="Path 200" d="M83.2,38.794v-20a1.2,1.2,0,0,0-1.2-1.2H75.444l-.332-.663a1.694,1.694,0,0,0-3.031,0l-.332.663H65.2a1.2,1.2,0,0,0-1.2,1.2v20a1.2,1.2,0,0,0,1.2,1.2H82a1.2,1.2,0,0,0,1.2-1.2Zm-14.347-17.8a.4.4,0,0,0,.347.2H78a.4.4,0,0,0,.347-.2l.571-1H80.8v17.6H66.4v-17.6h1.882Zm8.915-.6H69.429l-1.143-2H78.907ZM72.8,17.289a.894.894,0,0,1,1.6,0l.153.306H72.644Zm-8,21.505v-20a.4.4,0,0,1,.4-.4h2.168l.457.8H66a.4.4,0,0,0-.4.4v18.4a.4.4,0,0,0,.4.4H81.2a.4.4,0,0,0,.4-.4v-18.4a.4.4,0,0,0-.4-.4H79.372l.457-.8H82a.4.4,0,0,1,.4.4v20a.4.4,0,0,1-.4.4H65.2A.4.4,0,0,1,64.8,38.794Z" fill="#fff"/>
    <path id="Path_201" data-name="Path 201" d="M136.4,182.22h2.4a.4.4,0,0,0,.4-.4v-2.234l.683-.683-.566-.566-2.4,2.4.566.566.917-.917v1.034h-1.6v-1.6h.8v-.8h-1.2a.4.4,0,0,0-.4.4v2.4A.4.4,0,0,0,136.4,182.22Z" transform="translate(-68.4 -154.226)" fill="#fff"/>
    <path id="Path_202" data-name="Path 202" d="M216,199.994h1.2v.8H216Z" transform="translate(-144.4 -174.8)" fill="#fff"/>
    <path id="Path_203" data-name="Path 203" d="M256,199.994h5.2v.8H256Z" transform="translate(-182.4 -174.8)" fill="#fff"/>
    <path id="Path_204" data-name="Path 204" d="M216,231.994h3.2v.8H216Z" transform="translate(-144.4 -205.2)" fill="#fff"/>
    <path id="Path_205" data-name="Path 205" d="M296,231.994h.8v.8H296Z" transform="translate(-220.4 -205.2)" fill="#fff"/>
    <path id="Path_206" data-name="Path 206" d="M136.4,262.22h2.4a.4.4,0,0,0,.4-.4v-2.234l.683-.683-.566-.566-2.4,2.4.566.566.917-.917v1.034h-1.6v-1.6h.8v-.8h-1.2a.4.4,0,0,0-.4.4v2.4A.4.4,0,0,0,136.4,262.22Z" transform="translate(-68.4 -230.226)" fill="#fff"/>
    <path id="Path_207" data-name="Path 207" d="M216,279.994h1.2v.8H216Z" transform="translate(-144.4 -250.8)" fill="#fff"/>
    <path id="Path_208" data-name="Path 208" d="M256,279.994h5.2v.8H256Z" transform="translate(-182.4 -250.8)" fill="#fff"/>
    <path id="Path_209" data-name="Path 209" d="M216,311.994h3.2v.8H216Z" transform="translate(-144.4 -281.2)" fill="#fff"/>
    <path id="Path_210" data-name="Path 210" d="M296,311.994h.8v.8H296Z" transform="translate(-220.4 -281.2)" fill="#fff"/>
    <path id="Path_211" data-name="Path 211" d="M200,135.994h.8v.8H200Z" transform="translate(-129.2 -114)" fill="#fff"/>
    <path id="Path_212" data-name="Path 212" d="M296,135.994h.8v.8H296Z" transform="translate(-220.4 -114)" fill="#fff"/>
    <path id="Path_213" data-name="Path 213" d="M232,135.994h2.4v.8H232Z" transform="translate(-159.6 -114)" fill="#fff"/>
    <path id="Path_214" data-name="Path 214" d="M219.6,353.194h-.912l-.309-.927a.4.4,0,0,0-.759,0l-.309.927H216.4a.4.4,0,0,0-.283.683l.625.625-.322.965a.4.4,0,0,0,.6.459l.978-.652.978.652a.4.4,0,0,0,.6-.459l-.322-.965.625-.625a.4.4,0,0,0-.283-.683Zm-1.083.917a.4.4,0,0,0-.1.409l.031.094-.23-.153a.4.4,0,0,0-.444,0l-.23.153.031-.094a.4.4,0,0,0-.1-.409l-.117-.117h.234a.4.4,0,0,0,.379-.273l.021-.062.021.062a.4.4,0,0,0,.379.273h.234Z" transform="translate(-144.4 -319.2)" fill="#fff"/>
    <path id="Path_215" data-name="Path 215" d="M128.739,354.5l-.322.965a.4.4,0,0,0,.6.459l.978-.652.978.652a.4.4,0,0,0,.6-.459l-.322-.965.625-.625a.4.4,0,0,0-.283-.683h-.912l-.309-.927a.4.4,0,0,0-.759,0l-.309.927H128.4a.4.4,0,0,0-.283.683Zm.858-.508a.4.4,0,0,0,.379-.273l.021-.062.021.062a.4.4,0,0,0,.379.273h.234l-.117.117a.4.4,0,0,0-.1.409l.031.094-.23-.153a.4.4,0,0,0-.444,0l-.23.153.031-.094a.4.4,0,0,0-.1-.409l-.117-.117Z" transform="translate(-60.8 -319.2)" fill="#fff"/>
    <path id="Path_216" data-name="Path 216" d="M306.376,352.268a.4.4,0,0,0-.759,0l-.309.927H304.4a.4.4,0,0,0-.283.683l.625.625-.322.965a.4.4,0,0,0,.6.459l.978-.652.978.652a.4.4,0,0,0,.6-.459l-.322-.965.625-.625a.4.4,0,0,0-.283-.683h-.912Zm.138,1.844a.4.4,0,0,0-.1.409l.031.094-.23-.153a.4.4,0,0,0-.444,0l-.23.153.031-.094a.4.4,0,0,0-.1-.409l-.117-.117h.234a.4.4,0,0,0,.379-.273l.021-.062.021.062a.4.4,0,0,0,.379.273h.234Z" transform="translate(-228 -319.2)" fill="#fff"/>
  </g>
</svg>
