<svg xmlns="http://www.w3.org/2000/svg" xmlns:xlink="http://www.w3.org/1999/xlink" width="130.634" height="118.172" viewBox="0 0 130.634 118.172">
  <defs>
    <linearGradient id="linear-gradient" x1="0.5" x2="0.5" y2="1" gradientUnits="objectBoundingBox">
      <stop offset="0" stop-color="#48b19a"/>
      <stop offset="1" stop-color="#24594d"/>
    </linearGradient>
  </defs>
  <g id="Group_163" data-name="Group 163" transform="translate(-26.247 -288.919)">
    <g id="Group_116" data-name="Group 116" transform="translate(26.247 290.711)">
      <path id="Path_64" data-name="Path 64" d="M195.973,382.974A52.942,52.942,0,0,1,189,405.818l25.989-.073-8.012-11.612,7.983-11.212Z" transform="translate(-84.354 -323.723)" fill="url(#linear-gradient)"/>
      <path id="Path_65" data-name="Path 65" d="M45.262,382.974a52.942,52.942,0,0,0,6.974,22.844l-25.989-.073,8.011-11.612-7.982-11.212Z" transform="translate(-26.247 -323.723)" fill="url(#linear-gradient)"/>
      <path id="Path_142" data-name="Path 142" d="M48.218,0c26.547-.083,48,21.085,47.917,47.28s-21.671,47.5-48.218,47.581S-.083,73.777,0,47.581,21.672.083,48.218,0Z" transform="translate(8.704 93.799) rotate(-77.341)" stroke="#48b19a" stroke-linecap="round" stroke-width="3" fill="url(#linear-gradient)"/>
      <path id="Path_66" data-name="Path 66" d="M133.263,392.111l-5.915-4.791,2.082,7.437-5.184-5.646,1,7.678-4.336-6.375-.109,7.749-3.391-6.962-1.213,7.646-2.371-7.393-2.29,7.372-1.3-7.659-3.315,6.933-.2-7.754-4.267,6.34.911-7.675-5.123,5.605,2-7.426-5.865,4.745,3.04-7.01-6.476,3.779,4.013-6.438L88.015,385l4.9-5.722-7.254,1.617,5.672-4.878-7.4.469,6.32-3.925-7.387-.689,6.827-2.885-7.205-1.831,7.181-1.78L82.8,362.44l7.375-.635-6.368-3.97,7.4.524-5.73-4.917,7.268,1.671-4.964-5.755,6.97,2.781-4.088-6.464,6.515,3.828-3.12-7.029,5.915,4.791L97.9,339.828l5.184,5.646-1-7.678,4.336,6.375.109-7.748,3.391,6.961,1.213-7.645,2.371,7.393,2.29-7.372,1.3,7.659,3.315-6.933.2,7.754,4.267-6.34-.911,7.675,5.123-5.605-2,7.426,5.865-4.745-3.04,7.01,6.476-3.779-4.013,6.438,6.942-2.728-4.9,5.722,7.254-1.617L136,358.572l7.4-.469-6.32,3.925,7.387.689L137.64,365.6l7.205,1.832-7.181,1.78,6.863,2.933-7.375.635,6.368,3.97-7.4-.524,5.73,4.917-7.268-1.671,4.964,5.755-6.97-2.781,4.088,6.464-6.515-3.828Z" transform="translate(-48.471 -309.32)" fill="#48b19a"/>
      <g id="Path_143" data-name="Path 143" transform="matrix(0.219, -0.976, 0.976, 0.219, 13.654, 90.709)" fill="none">
        <path d="M44.143,0c24.3-.083,43.925,19.26,43.842,43.205S68.138,86.629,43.842,86.712-.083,67.451,0,43.507,19.847.084,44.143,0Z" stroke="none"/>
        <path d="M 44.2996711730957 0.9999923706054688 C 44.24893951416016 0.9999923706054688 44.19763565063477 1.000083923339844 44.14688110351563 1.000259399414063 C 38.34033966064453 1.020156860351563 32.70410537719727 2.160003662109375 27.39471817016602 4.388130187988281 C 22.26645660400391 6.540260314941406 17.65683746337891 9.611885070800781 13.69389343261719 13.51766967773438 C 9.731941223144531 17.42247009277344 6.616485595703125 21.96379089355469 4.43408203125 27.01546096801758 C 2.175437927246094 32.24359130859375 1.0201416015625 37.7932243347168 1.000259399414063 43.51020050048828 C 0.980621337890625 49.15930938720703 2.071578979492188 54.63993072509766 4.242813110351563 59.79983520507813 C 6.340354919433594 64.78462219238281 9.356636047363281 69.27167510986328 13.20787811279297 73.13632965087891 C 17.13487243652344 77.07698059082031 21.72988128662109 80.17226409912109 26.86526870727539 82.336181640625 C 32.18141174316406 84.57624816894531 37.84067153930664 85.71205902099609 43.68585968017578 85.71205902099609 C 43.73658752441406 85.71205902099609 43.78786849975586 85.71196746826172 43.838623046875 85.7117919921875 C 49.64516448974609 85.69189453125 55.28139877319336 84.55204772949219 60.59077453613281 82.32392120361328 C 65.71903228759766 80.17179107666016 70.32865905761719 77.10018157958984 74.29159545898438 73.19438934326172 C 78.25355529785156 69.28958892822266 81.36900329589844 64.74827575683594 83.55141448974609 59.69660186767578 C 85.81004333496094 54.46847152709961 86.96535491943359 48.91883850097656 86.98522186279297 43.20186233520508 C 87.00485992431641 37.55274200439453 85.91390228271484 32.07212066650391 83.74266815185547 26.91220092773438 C 81.64512634277344 21.92741394042969 78.62883758544922 17.44036865234375 74.777587890625 13.57570648193359 C 70.85060882568359 9.635047912597656 66.255615234375 6.539779663085938 61.12022399902344 4.375869750976563 C 55.80410385131836 2.13580322265625 50.14484786987305 0.9999923706054688 44.2996711730957 0.9999923706054688 M 44.2996711730957 -7.62939453125e-06 C 68.52416229248047 -7.62939453125e-06 88.06826782226563 19.31175231933594 87.98521423339844 43.20532989501953 C 87.90198516845703 67.15004730224609 68.13841247558594 86.6285400390625 43.84204483032227 86.7117919921875 C 43.79014205932617 86.71196746826172 43.73771667480469 86.71205902099609 43.68585586547852 86.71205902099609 C 19.46134948730469 86.71205902099609 -0.08278656005859375 67.40030670166016 0.00026702880859375 43.50673294067383 C 0.08350372314453125 19.56201171875 19.84708404541016 0.0835113525390625 44.14345932006836 0.0002593994140625 C 44.19536209106445 8.392333984375e-05 44.24781036376953 -7.62939453125e-06 44.2996711730957 -7.62939453125e-06 Z" stroke="none" fill="#fff"/>
      </g>
      <path id="Path_67" data-name="Path 67" d="M52.664,371.077a60.025,60.025,0,0,0,3.926,21.48h84.646a60.924,60.924,0,0,0,1.138-39.735H55.452A60.463,60.463,0,0,0,52.664,371.077Z" transform="translate(-33.397 -314.01)" fill="url(#linear-gradient)"/>
      <text id="CERTIFIED" transform="translate(26.789 62.931)" fill="#fff" font-size="16" font-family="SegoeUI, Segoe UI"><tspan x="0" y="0">CERTIFIED</tspan></text>
      <g id="Group_109" data-name="Group 109" transform="translate(15.98 42.062)">
        <line id="Line_13" data-name="Line 13" x2="98.122" fill="none" stroke="#fff" stroke-miterlimit="10" stroke-width="1"/>
        <line id="Line_14" data-name="Line 14" x2="98.122" transform="translate(0 33.431)" fill="none" stroke="#fff" stroke-miterlimit="10" stroke-width="1"/>
      </g>
      <g id="Group_112" data-name="Group 112" transform="translate(34.846 18.502)">
        <g id="Group_111" data-name="Group 111">
          <g id="Group_110" data-name="Group 110">
            <path id="Path_68" data-name="Path 68" d="M83.852,334.761l3.316,3.63-.468.428-3.316-3.63Z" transform="translate(-83.384 -323.53)" fill="#fff"/>
            <path id="Path_69" data-name="Path 69" d="M89.647,335a2.243,2.243,0,0,0,1.1-.422c.521-.387.621-.888.325-1.286-.274-.369-.641-.423-1.326-.233-.814.251-1.46.213-1.873-.343a1.416,1.416,0,0,1,.479-2.02,2.244,2.244,0,0,1,1.016-.455l.168.52a1.965,1.965,0,0,0-.888.37c-.539.4-.5.874-.3,1.144.274.369.649.372,1.35.178.859-.238,1.438-.168,1.869.411a1.484,1.484,0,0,1-.538,2.163,2.545,2.545,0,0,1-1.194.5Z" transform="translate(-84.532 -322.308)" fill="#fff"/>
            <path id="Path_70" data-name="Path 70" d="M98.429,327.4a2.3,2.3,0,0,1-.775,3.361,2.252,2.252,0,0,1-3.13-1.139,2.334,2.334,0,0,1,.777-3.356A2.238,2.238,0,0,1,98.429,327.4Zm-3.315,1.886a1.758,1.758,0,0,0,2.327,1c.884-.479.943-1.564.412-2.545a1.765,1.765,0,0,0-2.33-1.01C94.6,327.233,94.6,328.336,95.114,329.285Z" transform="translate(-86.295 -321.155)" fill="#fff"/>
            <path id="Path_71" data-name="Path 71" d="M107.716,326.11a2.664,2.664,0,0,0,.492-.161,1.792,1.792,0,0,0,.831-.713,2.083,2.083,0,0,0,.261-1.385l-.021.007a1.388,1.388,0,0,1-.936.794,1.372,1.372,0,0,1-1.742-1.017,1.625,1.625,0,0,1,1.1-2.062c.934-.263,1.723.333,2.052,1.5a3,3,0,0,1-.182,2.364,2.37,2.37,0,0,1-1.155.985,3.052,3.052,0,0,1-.559.2Zm-.516-2.69a.912.912,0,0,0,1.151.721,1.061,1.061,0,0,0,.764-.731.415.415,0,0,0-.007-.241c-.22-.779-.676-1.295-1.322-1.112A1.019,1.019,0,0,0,107.2,323.421Z" transform="translate(-89.649 -319.944)" fill="#fff"/>
            <path id="Path_72" data-name="Path 72" d="M117.11,322.135c.233,1.594-.229,2.56-1.268,2.712-.915.134-1.661-.633-1.9-2.181-.23-1.572.321-2.537,1.273-2.677C116.2,319.844,116.891,320.642,117.11,322.135Zm-2.535.446c.179,1.219.656,1.856,1.233,1.772.648-.1.848-.9.672-2.1-.168-1.154-.575-1.868-1.232-1.772C114.692,320.566,114.388,321.3,114.575,322.58Z" transform="translate(-91.64 -319.528)" fill="#fff"/>
            <path id="Path_73" data-name="Path 73" d="M124.473,321.733c.03,1.611-.552,2.512-1.6,2.531-.926.016-1.569-.839-1.612-2.406-.029-1.589.64-2.476,1.6-2.494C123.86,319.345,124.445,320.224,124.473,321.733Zm-2.572.12c.023,1.233.414,1.925,1,1.915.656-.012.955-.783.933-1.993-.021-1.166-.334-1.926-1-1.914C122.273,319.87,121.877,320.563,121.9,321.852Z" transform="translate(-93.635 -319.363)" fill="#fff"/>
            <path id="Path_74" data-name="Path 74" d="M130.474,320.4h-.014l-.867.353-.071-.5,1.09-.439.543.059-.514,4.71-.616-.067Z" transform="translate(-95.872 -319.485)" fill="#fff"/>
            <path id="Path_75" data-name="Path 75" d="M135.4,325.475a.435.435,0,1,1,.849.181.434.434,0,1,1-.849-.181Zm.538-2.518a.435.435,0,1,1,.849.182.434.434,0,1,1-.849-.182Z" transform="translate(-97.46 -320.236)" fill="#fff"/>
            <path id="Path_76" data-name="Path 76" d="M139.038,326.335l.122-.375.629-.31c1.508-.724,2.218-1.139,2.445-1.818a.846.846,0,0,0-.61-1.172,1.613,1.613,0,0,0-1.082.072l-.055-.494a2.085,2.085,0,0,1,1.427-.044,1.335,1.335,0,0,1,.957,1.76c-.27.833-1.092,1.311-2.34,1.92l-.469.217,0,.015,2.028.656-.164.507Z" transform="translate(-98.448 -320.101)" fill="#fff"/>
            <path id="Path_77" data-name="Path 77" d="M149.641,327.94c-.688,1.456-1.61,2-2.558,1.556-.837-.4-1.033-1.449-.376-2.871.679-1.437,1.672-1.934,2.542-1.523C150.152,325.529,150.285,326.576,149.641,327.94Zm-2.356-1.034c-.527,1.113-.484,1.908.044,2.157.593.281,1.2-.278,1.721-1.371.5-1.054.556-1.874-.045-2.157C148.5,325.295,147.835,325.74,147.284,326.906Z" transform="translate(-100.417 -320.879)" fill="#fff"/>
            <path id="Path_78" data-name="Path 78" d="M155.6,329.381l-.012-.008-.934-.072.16-.478,1.171.095.46.3-2.568,3.987-.521-.336Z" transform="translate(-102.323 -321.923)" fill="#fff"/>
            <path id="Path_79" data-name="Path 79" d="M158.129,335.973a2.672,2.672,0,0,0,.41.316,1.789,1.789,0,0,0,1.054.288,2.086,2.086,0,0,0,1.292-.561l-.017-.014a1.392,1.392,0,0,1-1.182-.329,1.372,1.372,0,0,1-.136-2.011,1.624,1.624,0,0,1,2.323-.245c.741.624.691,1.612-.088,2.537a2.989,2.989,0,0,1-2.057,1.174,2.371,2.371,0,0,1-1.463-.4,2.964,2.964,0,0,1-.475-.353Zm1.935-1.936a.912.912,0,0,0,.049,1.357,1.06,1.06,0,0,0,1.033.222.426.426,0,0,0,.195-.141c.521-.619.692-1.285.179-1.718A1.019,1.019,0,0,0,160.064,334.037Z" transform="translate(-103.523 -323.063)" fill="#fff"/>
          </g>
        </g>
      </g>
      <g id="Group_115" data-name="Group 115" transform="translate(41.351 85.1)">
        <g id="Group_114" data-name="Group 114">
          <g id="Group_113" data-name="Group 113">
            <path id="Path_80" data-name="Path 80" d="M95.08,427.246a4.565,4.565,0,0,1-1.38-.67,2.311,2.311,0,0,1-.581-3.493,2.467,2.467,0,0,1,3.648-.484,3.026,3.026,0,0,1,.858.905l-.429.328a2.551,2.551,0,0,0-.755-.811,1.839,1.839,0,0,0-2.762.434,1.8,1.8,0,0,0,.365,2.722,2.054,2.054,0,0,0,.762.392l.863-1.185-.808-.589.3-.413,1.309.953Z" transform="translate(-92.568 -421.682)" fill="#fff"/>
            <path id="Path_81" data-name="Path 81" d="M102.242,425.737l-1.288,2.611c-.487.988-.255,1.623.334,1.914.654.322,1.286.1,1.766-.877l1.288-2.611.576.284-1.269,2.572c-.668,1.354-1.656,1.559-2.611,1.087-.9-.445-1.328-1.3-.654-2.665l1.281-2.6Z" transform="translate(-94.594 -422.614)" fill="#fff"/>
            <path id="Path_82" data-name="Path 82" d="M108.383,432.253l-.942,1.33-.628-.193,3.038-4.213.732.224.165,5.194-.649-.2-.049-1.633Zm1.688,0-.046-1.5c-.011-.339.005-.64.018-.933l-.014,0c-.155.257-.319.521-.5.778l-.877,1.22Z" transform="translate(-96.423 -423.622)" fill="#fff"/>
            <path id="Path_83" data-name="Path 83" d="M116.452,430.743a6.64,6.64,0,0,1,1.22.07,2.011,2.011,0,0,1,1.352.6,1.224,1.224,0,0,1,.252.979,1.291,1.291,0,0,1-1.093,1.112l0,.022a1.225,1.225,0,0,1,.576,1.084,7.83,7.83,0,0,0,.186,1.389l-.65-.092a6.431,6.431,0,0,1-.16-1.208c-.05-.692-.274-.982-.841-1.085l-.592-.084-.3,2.108-.629-.089Zm.314,2.306.643.091a.967.967,0,0,0,1.229-.769c.089-.629-.327-.968-.99-1.068a2.615,2.615,0,0,0-.629-.031Z" transform="translate(-98.848 -424.045)" fill="#fff"/>
            <path id="Path_84" data-name="Path 84" d="M124.437,434.769l-.484,1.553-.656.012,1.586-4.942.766-.012,1.759,4.885-.678.012-.551-1.537Zm1.6-.522-.505-1.407c-.115-.319-.192-.609-.27-.892h-.015c-.068.293-.143.594-.233.893l-.457,1.43Z" transform="translate(-100.885 -424.219)" fill="#fff"/>
            <path id="Path_85" data-name="Path 85" d="M132.244,435.659l-.893-4.838.682-.126,2,2.162a13.958,13.958,0,0,1,1.158,1.413l.013-.01c-.176-.635-.3-1.222-.438-1.975l-.373-2.024.589-.109.893,4.838-.632.116-1.989-2.17a15.684,15.684,0,0,1-1.2-1.449l-.02.012c.149.6.27,1.182.419,1.987l.381,2.067Z" transform="translate(-103.065 -423.886)" fill="#fff"/>
            <path id="Path_86" data-name="Path 86" d="M140.172,429.118l-1.41.5-.179-.509,3.432-1.211.179.51-1.417.5,1.456,4.127-.605.213Z" transform="translate(-105.022 -423.276)" fill="#fff"/>
            <path id="Path_87" data-name="Path 87" d="M148.91,427.579l-1.694.884.819,1.571,1.888-.985.246.472-2.45,1.278-2.273-4.358,2.354-1.227.247.472-1.791.934.718,1.377,1.694-.883Z" transform="translate(-106.88 -422.55)" fill="#fff"/>
            <path id="Path_88" data-name="Path 88" d="M154.74,423.748l-1.554,1.111,1.031,1.442,1.732-1.239.309.433L154.01,427.1l-2.858-4,2.16-1.543.309.432-1.643,1.175.9,1.263,1.554-1.11Z" transform="translate(-108.424 -421.561)" fill="#fff"/>
          </g>
        </g>
      </g>
    </g>
    <g id="Group_117" data-name="Group 117" transform="translate(117.889 370.155)">
      <path id="Path_89" data-name="Path 89" d="M167.956,411.909l.646,1.31,1.445.21L169,414.448l.247,1.439-1.293-.68-1.293.68.247-1.439-1.046-1.019,1.445-.21Z" transform="translate(-165.865 -411.909)" fill="#fff"/>
    </g>
    <g id="Group_118" data-name="Group 118" transform="translate(60.469 370.155)">
      <path id="Path_90" data-name="Path 90" d="M80.476,411.909l.646,1.31,1.445.21-1.046,1.019.247,1.439-1.293-.68-1.293.68.247-1.439-1.046-1.019,1.445-.21Z" transform="translate(-78.385 -411.909)" fill="#fff"/>
    </g>
  </g>
</svg>
