<svg xmlns="http://www.w3.org/2000/svg" xmlns:xlink="http://www.w3.org/1999/xlink" width="102" height="102" viewBox="0 0 102 102">
  <defs>
    <linearGradient id="linear-gradient" x1="1.691" y1="0.5" x2="0" y2="0.5" gradientUnits="objectBoundingBox">
      <stop offset="0" stop-color="#48b19a"/>
      <stop offset="1" stop-color="#24594d"/>
    </linearGradient>
  </defs>
  <g id="Group_305" data-name="Group 305" transform="translate(-2274 -3739)">
    <path id="Path_235" data-name="Path 235" d="M58.763,44,37,65.763h7.254v9.068L58.763,60.322,73.271,74.831V63.949h7.254Z" transform="translate(2295.475 3766.169)" fill="url(#linear-gradient)"/>
    <rect id="Rectangle_175" data-name="Rectangle 175" width="55" height="4" transform="translate(2302.923 3768.495)" fill="url(#linear-gradient)"/>
    <rect id="Rectangle_176" data-name="Rectangle 176" width="55" height="4" transform="translate(2302.923 3778.961)" fill="url(#linear-gradient)"/>
    <rect id="Rectangle_177" data-name="Rectangle 177" width="55" height="4" transform="translate(2302.923 3788.476)" fill="url(#linear-gradient)"/>
    <rect id="Rectangle_178" data-name="Rectangle 178" width="55" height="4" transform="translate(2302.923 3798.942)" fill="url(#linear-gradient)"/>
    <path id="Path_236" data-name="Path 236" d="M0,4.673Z" transform="translate(2326.063 3752.325)" fill="url(#linear-gradient)"/>
    <circle id="Ellipse_24" data-name="Ellipse 24" cx="11" cy="11" r="11" transform="translate(2343 3808)" fill="url(#linear-gradient)"/>
    <path id="Path_237" data-name="Path 237" d="M45.627,58,42,61.627H67.39L63.763,58Z" transform="translate(2299.542 3777.559)" fill="url(#linear-gradient)"/>
    <path id="Path_238" data-name="Path 238" d="M86.712,2H12.346A10.365,10.365,0,0,0,2,12.364V21a1.726,1.726,0,0,0,1.724,1.727H19.243v77.731a1.726,1.726,0,0,0,1.724,1.727h48.28V98.732H22.691V12.364a10.321,10.321,0,0,0-2.655-6.909H86.712a8.417,8.417,0,0,1,8.4,8.414V85.633L98.559,88.8V13.869A11.87,11.87,0,0,0,86.712,2ZM19.243,19.274H5.449V12.364a6.9,6.9,0,1,1,13.794,0Z" transform="translate(2272 3737)" fill="url(#linear-gradient)"/>
    <rect id="Rectangle_179" data-name="Rectangle 179" width="55" height="4" transform="translate(2302.923 3768.495)" fill="url(#linear-gradient)"/>
    <rect id="Rectangle_180" data-name="Rectangle 180" width="55" height="4" transform="translate(2302.923 3778.961)" fill="url(#linear-gradient)"/>
    <rect id="Rectangle_181" data-name="Rectangle 181" width="55" height="4" transform="translate(2302.923 3788.476)" fill="url(#linear-gradient)"/>
    <rect id="Rectangle_182" data-name="Rectangle 182" width="55" height="4" transform="translate(2302.923 3798.942)" fill="url(#linear-gradient)"/>
    <path id="Path_239" data-name="Path 239" d="M45.508,15.254a7.254,7.254,0,1,0-7.254,7.254A7.254,7.254,0,0,0,45.508,15.254Zm-10.881,0a3.627,3.627,0,1,1,3.627,3.627A3.627,3.627,0,0,1,34.627,15.254Z" transform="translate(2292.75 3741.881)" fill="url(#linear-gradient)"/>
  </g>
</svg>
