<svg xmlns="http://www.w3.org/2000/svg" width="25.579" height="27" viewBox="0 0 25.579 27">
  <path id="iconfinder_calendar_5402455" d="M24.316,4.842H22.895V3.421a1.421,1.421,0,0,0-2.842,0V4.842H11.526V3.421a1.421,1.421,0,0,0-2.842,0V4.842H7.263A4.263,4.263,0,0,0,3,9.105V24.737A4.263,4.263,0,0,0,7.263,29H24.316a4.263,4.263,0,0,0,4.263-4.263V9.105a4.263,4.263,0,0,0-4.263-4.263ZM10.105,24.737a1.421,1.421,0,1,1,1.421-1.421A1.421,1.421,0,0,1,10.105,24.737Zm0-5.684a1.421,1.421,0,1,1,1.421-1.421A1.421,1.421,0,0,1,10.105,19.053Zm5.684,5.684a1.421,1.421,0,1,1,1.421-1.421A1.421,1.421,0,0,1,15.789,24.737Zm0-5.684a1.421,1.421,0,1,1,1.421-1.421A1.421,1.421,0,0,1,15.789,19.053Zm5.684,0a1.421,1.421,0,1,1,1.421-1.421A1.421,1.421,0,0,1,21.474,19.053Zm4.263-5.684H5.842V9.105A1.421,1.421,0,0,1,7.263,7.684H8.684V9.105a1.421,1.421,0,1,0,2.842,0V7.684h8.526V9.105a1.421,1.421,0,1,0,2.842,0V7.684h1.421a1.421,1.421,0,0,1,1.421,1.421Z" transform="translate(-3 -2)" fill="#464646"/>
</svg>
