<svg xmlns="http://www.w3.org/2000/svg" width="30.557" height="29.304" viewBox="0 0 30.557 29.304">
  <g id="Icon_feather-shopping-cart" data-name="Icon feather-shopping-cart" transform="translate(1.5 1.5)">
    <path id="Path_144" data-name="Path 144" d="M14.505,31.253A1.253,1.253,0,1,1,13.253,30,1.253,1.253,0,0,1,14.505,31.253Z" transform="translate(-3.232 -6.201)" fill="none" stroke="#48b19a" stroke-linecap="round" stroke-linejoin="round" stroke-width="3"/>
    <path id="Path_145" data-name="Path 145" d="M31.005,31.253A1.253,1.253,0,1,1,29.753,30,1.253,1.253,0,0,1,31.005,31.253Z" transform="translate(-5.954 -6.201)" fill="none" stroke="#48b19a" stroke-linecap="round" stroke-linejoin="round" stroke-width="3"/>
    <path id="Path_146" data-name="Path 146" d="M1.5,1.5H6.51L9.867,18.272a2.505,2.505,0,0,0,2.505,2.017H24.547a2.505,2.505,0,0,0,2.505-2.017l2-10.509H7.763" transform="translate(-1.5 -1.5)" fill="none" stroke="#48b19a" stroke-linecap="round" stroke-linejoin="round" stroke-width="3"/>
  </g>
</svg>
