<svg xmlns="http://www.w3.org/2000/svg" width="69.057" height="68.629" viewBox="0 0 69.057 68.629">
  <g id="Group_306" data-name="Group 306" transform="translate(-157.453 -36)">
    <path id="Path_240" data-name="Path 240" d="M170.495,398.05a34.533,34.533,0,1,0,54,29.656,32.592,32.592,0,1,1-54-29.656Z" transform="translate(2.02 -356.479)" fill="#595b5c" fill-rule="evenodd"/>
    <path id="Path_241" data-name="Path 241" d="M234.318,428.311a29.141,29.141,0,1,0-45.564-25.024,27.5,27.5,0,1,1,45.564,25.024Z" transform="translate(-23.213 -339.101)" fill="#24abe2" fill-rule="evenodd"/>
    <path id="Path_242" data-name="Path 242" d="M230.4,552.309h0c-.334-.916-1.757-1.415-3.336-1.251-.424.082-.921.163-1.34.245-2,.67-12.171,4.087-12.255,4.17l-.252.088.171.164c1.169.916,1.749,1.921,1.414,2.756-.327,1.332-2,2.084-4.668,2.248a33.045,33.045,0,0,1-9.09-.662,6.842,6.842,0,0,1,1.251.082c2.583,0,5,0,6.923-.172,2.919-.245,4.334-.916,4.5-2,.083-.745-.335-1.333-1.341-1.831-1.079-.581-3.416-.834-5.582-1.251-1.585-.253-2.92-.417-4.005-.663-3.5-.924-7.089-1.839-11.34-1.5a16.732,16.732,0,0,0-2,.246c-3.165.588-6.337,1.34-9.673,2.256l-.416.082,4.922,7.006a23.832,23.832,0,0,1,2.664-.417,14.152,14.152,0,0,1,3.254.082c1.332.252,4.748.916,8,1.586,3.343.752,6.588,1.333,7.758,1.5a17.111,17.111,0,0,0,2.084.089,14.508,14.508,0,0,0,4.92-1.92c.5-.335,1-.5,1.5-.835l14.5-7.839c1.667-1,1.667-1.831,1.421-2.248Z" transform="translate(-16.104 -472.323)" fill="#595b5c" fill-rule="evenodd"/>
    <path id="Path_243" data-name="Path 243" d="M256.286,449.7h.515c3.447.414,3.04,5.633-.429,5.5C253.152,455.072,252.913,449.917,256.286,449.7Z" transform="translate(-72.511 -395.592)" fill="#48b19a" fill-rule="evenodd"/>
    <path id="Path_244" data-name="Path 244" d="M253.868,458.537c.073-.016.081.033.086.086-3.082,6.275,2.467,14.942,0,22.334a30.988,30.988,0,0,0-10.136-16.836c-.639-.562-1.5-.925-1.89-1.718,3.414-.69,6.018.753,8.075,1.976A7.588,7.588,0,0,1,253.868,458.537Z" transform="translate(-63.479 -402.282)" fill="#24abe2" fill-rule="evenodd"/>
    <path id="Path_245" data-name="Path 245" d="M211.79,473.609a3.075,3.075,0,0,1,3.608,2.405c.682,4.584-6.586,4.747-6.1.172A2.7,2.7,0,0,1,211.79,473.609Z" transform="translate(-38.753 -413.66)" fill="#48b19a" fill-rule="evenodd"/>
    <path id="Path_246" data-name="Path 246" d="M210.691,478.717c5.954,3.838,9.559,10.026,11.94,17.438-.35.1-.505-.334-.687-.515-4.319-4.319-11.186-9.5-20.358-7.044,1.386-2.787,4.262-4.47,8.676-3.951C211.443,483.462,211.6,480.332,210.691,478.717Z" transform="translate(-32.93 -417.565)" fill="#24abe2" fill-rule="evenodd"/>
    <path id="Path_247" data-name="Path 247" d="M293.948,456.3c.819-9.765,6.846-14.322,13.434-18.319-1.614-3.567-3.392-6.97-5.107-10.436a12.6,12.6,0,0,0-6.883,4.441c1.043-3.286,4.282-5.34,7.993-6.328,2.244,4.529,4.569,8.975,6.883,13.434-7.973,2.833-13.926,7.686-16.1,16.32,3.83-7.383,11.184-11.242,18.985-14.655-1.716-3.428-3.441-6.848-5.107-10.325-.307-.271-.871.426-1.221.111-.07-.448-.437-.6-.444-1.11a13.933,13.933,0,0,1,2.554-.888c2.427,4.2,4.623,8.626,6.772,13.1-9,2.845-16.447,7.238-21.316,14.211,1.526-.937,2.833-2.218,4.33-3.331a39.245,39.245,0,0,1,16.653-6.883c-.239-.983-.824-1.619-1.11-2.553a9.714,9.714,0,0,1,2-.666c.748,1.694,1.779,3.107,2.442,4.885C307.85,447.7,300.884,451.984,293.948,456.3Z" transform="translate(-102.872 -377.384)" fill="#24abe2" fill-rule="evenodd"/>
    <path id="Path_248" data-name="Path 248" d="M221.4,531.342a2.444,2.444,0,0,0,1.289-3.436,27.147,27.147,0,0,1,15.2,6.529C233.969,532.233,228.058,530.816,221.4,531.342Z" transform="translate(-47.937 -454.814)" fill="#24abe2" fill-rule="evenodd"/>
    <path id="Path_249" data-name="Path 249" d="M316.47,519.873c.12.491-.454,1.286-.333,2.11.171,1.161,1.31,1.753,2.109,2.22-8.407-.338-16.107.989-21.316,4.219-.133.156-.043.01,0-.111A35.468,35.468,0,0,1,316.47,519.873Z" transform="translate(-105.077 -448.731)" fill="#24abe2" fill-rule="evenodd"/>
  </g>
</svg>
